<svg width="521" height="164" viewBox="0 0 521 164" fill="none" xmlns="http://www.w3.org/2000/svg">
<path d="M183 162.743V76.9039H201.057V147.78H237.672V162.743H183Z" fill="#E2B134"/>
<path d="M249.297 162.743V98.3636H267.062V162.743H249.297ZM258.221 90.0647C255.58 90.0647 253.314 89.1845 251.424 87.4241C249.561 85.6358 248.63 83.4983 248.63 81.0114C248.63 78.5525 249.561 76.4428 251.424 74.6825C253.314 72.8942 255.58 72 258.221 72C260.863 72 263.114 72.8942 264.977 74.6825C266.868 76.4428 267.813 78.5525 267.813 81.0114C267.813 83.4983 266.868 85.6358 264.977 87.4241C263.114 89.1845 260.863 90.0647 258.221 90.0647Z" fill="#E2B134"/>
<path d="M281.293 162.743V98.3636H298.225V109.722H298.975C300.31 105.95 302.534 102.974 305.648 100.795C308.762 98.615 312.487 97.5253 316.824 97.5253C321.217 97.5253 324.956 98.629 328.042 100.836C331.128 103.016 333.186 105.978 334.214 109.722H334.881C336.188 106.034 338.551 103.086 341.971 100.878C345.418 98.643 349.491 97.5253 354.19 97.5253C360.167 97.5253 365.019 99.4393 368.744 103.267C372.497 107.068 374.374 112.46 374.374 119.446V162.743H356.65V122.967C356.65 119.39 355.705 116.708 353.814 114.919C351.924 113.131 349.561 112.237 346.725 112.237C343.5 112.237 340.984 113.271 339.177 115.339C337.37 117.378 336.466 120.075 336.466 123.428V162.743H319.243V122.59C319.243 119.432 318.339 116.917 316.532 115.045C314.753 113.173 312.404 112.237 309.484 112.237C307.511 112.237 305.731 112.74 304.147 113.746C302.59 114.724 301.352 116.107 300.435 117.895C299.518 119.656 299.059 121.723 299.059 124.098V162.743H281.293Z" fill="#E2B134"/>
<path d="M388.407 162.743V98.3636H406.172V162.743H388.407ZM397.331 90.0647C394.69 90.0647 392.424 89.1845 390.534 87.4241C388.671 85.6358 387.74 83.4983 387.74 81.0114C387.74 78.5525 388.671 76.4428 390.534 74.6825C392.424 72.8942 394.69 72 397.331 72C399.972 72 402.224 72.8942 404.087 74.6825C405.978 76.4428 406.923 78.5525 406.923 81.0114C406.923 83.4983 405.978 85.6358 404.087 87.4241C402.224 89.1845 399.972 90.0647 397.331 90.0647Z" fill="#E2B134"/>
<path d="M454.475 98.3636V111.776H415.899V98.3636H454.475ZM424.657 82.9394H442.422V142.959C442.422 144.608 442.673 145.893 443.173 146.815C443.674 147.71 444.369 148.338 445.258 148.702C446.176 149.065 447.232 149.246 448.428 149.246C449.262 149.246 450.096 149.177 450.93 149.037C451.764 148.869 452.403 148.744 452.848 148.66L455.642 161.946C454.753 162.226 453.501 162.547 451.889 162.91C450.276 163.301 448.316 163.539 446.009 163.623C441.727 163.79 437.974 163.218 434.749 161.904C431.552 160.591 429.064 158.551 427.284 155.785C425.505 153.019 424.629 149.526 424.657 145.307V82.9394Z" fill="#E2B134"/>
<path d="M518.54 116.722L502.276 117.728C501.998 116.33 501.401 115.073 500.483 113.955C499.566 112.81 498.356 111.902 496.855 111.231C495.381 110.532 493.616 110.183 491.559 110.183C488.806 110.183 486.485 110.77 484.594 111.944C482.704 113.089 481.759 114.626 481.759 116.554C481.759 118.091 482.37 119.39 483.593 120.452C484.817 121.514 486.916 122.366 489.891 123.009L501.484 125.356C507.712 126.641 512.354 128.709 515.413 131.559C518.471 134.409 520 138.153 520 142.792C520 147.011 518.763 150.713 516.288 153.899C513.842 157.084 510.478 159.571 506.196 161.359C501.943 163.12 497.036 164 491.475 164C482.996 164 476.24 162.226 471.208 158.677C466.203 155.1 463.27 150.238 462.408 144.091L479.882 143.169C480.41 145.768 481.689 147.752 483.719 149.121C485.748 150.462 488.348 151.133 491.517 151.133C494.631 151.133 497.133 150.532 499.023 149.33C500.942 148.101 501.915 146.522 501.943 144.594C501.915 142.973 501.234 141.646 499.899 140.612C498.565 139.55 496.507 138.74 493.727 138.181L482.634 135.96C476.379 134.703 471.722 132.523 468.664 129.421C465.633 126.32 464.118 122.366 464.118 117.56C464.118 113.424 465.23 109.862 467.454 106.872C469.706 103.882 472.862 101.577 476.921 99.9563C481.008 98.3356 485.79 97.5253 491.267 97.5253C499.357 97.5253 505.724 99.2437 510.367 102.681C515.037 106.118 517.762 110.798 518.54 116.722Z" fill="#E2B134"/>
<path d="M95.5075 0L73.8488 64.1739H138.825L125.353 78.4348H21.3914L95.5075 0Z" fill="#E2B134"/>
<path d="M117.441 85.5652H13.4789L0 99.826H64.9761L43.3174 164L117.441 85.5652Z" fill="#FDFEFF"/>
<path d="M183 52.2928V0H203.762C207.753 0 211.153 0.757497 213.963 2.27249C216.772 3.77046 218.913 5.85571 220.386 8.52822C221.877 11.1837 222.622 14.2477 222.622 17.7203C222.622 21.1929 221.868 24.2569 220.361 26.9124C218.853 29.5679 216.669 31.6361 213.808 33.1171C210.965 34.598 207.522 35.3385 203.479 35.3385H190.246V26.4783H201.68C203.822 26.4783 205.586 26.1124 206.974 25.3804C208.378 24.6314 209.423 23.6016 210.108 22.2908C210.811 20.9631 211.162 19.4396 211.162 17.7203C211.162 15.984 210.811 14.469 210.108 13.1753C209.423 11.8646 208.378 10.8518 206.974 10.1368C205.569 9.40488 203.787 9.0389 201.629 9.0389H194.126V52.2928H183Z" fill="white"/>
<path d="M254.953 35.5938V13.0732H265.899V52.2928H255.389V45.1689H254.978C254.088 47.467 252.606 49.3139 250.533 50.7097C248.478 52.1056 245.968 52.8035 243.004 52.8035C240.366 52.8035 238.045 52.2077 236.041 51.0161C234.037 49.8246 232.469 48.1308 231.339 45.9349C230.225 43.7391 229.66 41.1091 229.643 38.0451V13.0732H240.589V36.1045C240.606 38.4196 241.231 40.2495 242.465 41.5942C243.698 42.939 245.351 43.6114 247.424 43.6114C248.743 43.6114 249.976 43.3135 251.124 42.7177C252.272 42.1049 253.197 41.2027 253.899 40.0112C254.619 38.8196 254.97 37.3471 254.953 35.5938Z" fill="white"/>
<path d="M307.493 24.2569L297.472 24.8697C297.3 24.0186 296.932 23.2526 296.367 22.5717C295.801 21.8738 295.056 21.3206 294.131 20.912C293.223 20.4865 292.136 20.2737 290.868 20.2737C289.172 20.2737 287.742 20.6311 286.577 21.3461C285.412 22.044 284.83 22.9802 284.83 24.1548C284.83 25.091 285.207 25.8826 285.96 26.5294C286.714 27.1763 288.007 27.6954 289.84 28.087L296.983 29.5168C300.821 30.2999 303.681 31.5595 305.566 33.2958C307.45 35.0321 308.392 37.3131 308.392 40.1388C308.392 42.7092 307.63 44.9647 306.105 46.9052C304.598 48.8458 302.525 50.3608 299.887 51.4502C297.266 52.5226 294.243 53.0588 290.817 53.0588C285.592 53.0588 281.429 51.9779 278.329 49.8161C275.245 47.6372 273.438 44.6753 272.907 40.9304L283.673 40.3686C283.999 41.9517 284.787 43.1603 286.037 43.9944C287.288 44.8115 288.889 45.22 290.842 45.22C292.761 45.22 294.303 44.854 295.467 44.1221C296.649 43.3731 297.249 42.4113 297.266 41.2368C297.249 40.2495 296.829 39.4409 296.007 38.8111C295.185 38.1642 293.917 37.6706 292.204 37.3301L285.369 35.9768C281.515 35.2108 278.646 33.8831 276.761 31.9936C274.894 30.1041 273.961 27.6954 273.961 24.7676C273.961 22.2483 274.646 20.0779 276.016 18.2565C277.404 16.4351 279.348 15.0308 281.849 14.0435C284.367 13.0562 287.313 12.5625 290.688 12.5625C295.673 12.5625 299.596 13.6094 302.456 15.7032C305.334 17.7969 307.013 20.6482 307.493 24.2569Z" fill="white"/>
<path d="M326.231 29.619V52.2928H315.285V0H325.923V19.9928H326.385C327.276 17.6778 328.715 15.8649 330.702 14.5542C332.689 13.2264 335.181 12.5625 338.179 12.5625C340.92 12.5625 343.31 13.1583 345.348 14.3499C347.404 15.5244 348.997 17.2182 350.127 19.4311C351.275 21.627 351.84 24.2569 351.823 27.321V52.2928H340.877V29.2615C340.894 26.8443 340.278 24.9633 339.027 23.6186C337.794 22.2738 336.064 21.6014 333.837 21.6014C332.346 21.6014 331.027 21.9163 329.88 22.5462C328.749 23.176 327.858 24.0952 327.207 25.3038C326.573 26.4954 326.248 27.9338 326.231 29.619Z" fill="white"/>
<path d="M366 0H377.994L389.543 22.5206H390.038L401.587 0H413.581L395.107 33.8065V52.2928H384.473V33.8065L366 0Z" fill="white"/>
<path d="M428.437 53.0588C424.596 53.0588 421.274 52.2162 418.471 50.531C415.685 48.8288 413.533 46.4626 412.017 43.4327C410.5 40.3856 409.741 36.8535 409.741 32.8362C409.741 28.7849 410.5 25.2442 412.017 22.2142C413.533 19.1672 415.685 16.8011 418.471 15.1159C421.274 13.4137 424.596 12.5625 428.437 12.5625C432.279 12.5625 435.593 13.4137 438.379 15.1159C441.182 16.8011 443.341 19.1672 444.858 22.2142C446.375 25.2442 447.133 28.7849 447.133 32.8362C447.133 36.8535 446.375 40.3856 444.858 43.4327C443.341 46.4626 441.182 48.8288 438.379 50.531C435.593 52.2162 432.279 53.0588 428.437 53.0588ZM428.487 44.6327C430.234 44.6327 431.693 44.1221 432.864 43.1007C434.035 42.0623 434.917 40.6495 435.51 38.8621C436.12 37.0748 436.425 35.0406 436.425 32.7596C436.425 30.4786 436.12 28.4444 435.51 26.6571C434.917 24.8697 434.035 23.4569 432.864 22.4185C431.693 21.3801 430.234 20.861 428.487 20.861C426.723 20.861 425.239 21.3801 424.035 22.4185C422.848 23.4569 421.95 24.8697 421.34 26.6571C420.746 28.4444 420.45 30.4786 420.45 32.7596C420.45 35.0406 420.746 37.0748 421.34 38.8621C421.95 40.6495 422.848 42.0623 424.035 43.1007C425.239 44.1221 426.723 44.6327 428.487 44.6327Z" fill="white"/>
<path d="M478.343 35.5938V13.0732H488.878V52.2928H478.763V45.1689H478.367C477.51 47.467 476.084 49.3139 474.089 50.7097C472.111 52.1056 469.695 52.8035 466.843 52.8035C464.304 52.8035 462.07 52.2077 460.141 51.0161C458.212 49.8246 456.704 48.1308 455.616 45.9349C454.544 43.7391 454 41.1091 453.984 38.0451V13.0732H464.519V36.1045C464.535 38.4196 465.137 40.2495 466.324 41.5942C467.511 42.939 469.102 43.6114 471.097 43.6114C472.366 43.6114 473.553 43.3135 474.658 42.7177C475.763 42.1049 476.653 41.2027 477.329 40.0112C478.021 38.8196 478.359 37.3471 478.343 35.5938Z" fill="white"/>
<path d="M497.304 52.2928V13.0732H507.518V19.9162H507.914C508.606 17.482 509.768 15.6436 511.401 14.401C513.033 13.1413 514.912 12.5115 517.039 12.5115C517.567 12.5115 518.135 12.5455 518.745 12.6136C519.356 12.6817 519.891 12.7753 520.353 12.8945V22.5462C519.858 22.393 519.174 22.2568 518.3 22.1376C517.427 22.0185 516.627 21.9589 515.902 21.9589C514.352 21.9589 512.967 22.3079 511.747 23.0058C510.543 23.6867 509.587 24.6399 508.878 25.8655C508.186 27.0912 507.84 28.504 507.84 30.1041V52.2928H497.304Z" fill="white"/>
</svg>
